<?xml version="1.0" encoding="UTF-8"?> <!-- Creator: CorelDRAW X8 --> <svg xmlns="http://www.w3.org/2000/svg" xmlns:xlink="http://www.w3.org/1999/xlink" xml:space="preserve" width="280px" height="280px" version="1.0" style="shape-rendering:geometricPrecision; text-rendering:geometricPrecision; image-rendering:optimizeQuality; fill-rule:evenodd; clip-rule:evenodd" viewBox="0 0 28000000 28000000"> <defs> <style type="text/css"> <![CDATA[ .fil0 {fill:#1EC8F7} ]]> </style> </defs> <g id="Слой_x0020_1"> <metadata id="CorelCorpID_0Corel-Layer"></metadata> <path class="fil0" d="M14000000 0c3865796,0 7365754,1567074 9899326,4100674 2533600,2533572 4100674,6033587 4100674,9899326 0,3865796 -1567074,7365754 -4100674,9899326 -2533572,2533600 -6033530,4100674 -9899326,4100674 -3865796,0 -7365754,-1567074 -9899326,-4100674 -2533600,-2533572 -4100674,-6033530 -4100674,-9899326 0,-3865739 1567074,-7365754 4100674,-9899326 2533572,-2533600 6033530,-4100674 9899326,-4100674zm7071206 6928794c-1809492,-1809520 -4309587,-2928778 -7071206,-2928778 -2761619,0 -5261714,1119258 -7071206,2928778 -1809520,1809492 -2928778,4309587 -2928778,7071206 0,2761619 1119258,5261714 2928778,7071206 1809492,1809520 4309587,2928778 7071206,2928778 2761619,0 5261714,-1119258 7071206,-2928778 1809520,-1809492 2928778,-4309587 2928778,-7071206 0,-2761619 -1119258,-5261714 -2928778,-7071206z"></path> </g> </svg> 