<?xml version="1.0" encoding="UTF-8"?> <!-- Creator: CorelDRAW X8 --> <svg xmlns="http://www.w3.org/2000/svg" xmlns:xlink="http://www.w3.org/1999/xlink" xml:space="preserve" width="52px" height="52px" version="1.0" style="shape-rendering:geometricPrecision; text-rendering:geometricPrecision; image-rendering:optimizeQuality; fill-rule:evenodd; clip-rule:evenodd" viewBox="0 0 5199972 5199943"> <defs> <style type="text/css"> <![CDATA[ .fil0 {fill:#1EC8F7} ]]> </style> </defs> <g id="Слой_x0020_1"> <metadata id="CorelCorpID_0Corel-Layer"></metadata> <path class="fil0" d="M4593491 2054890l0 1071823c180541,90539 332990,229382 439830,399520 105507,168012 166651,366581 166651,579154 0,301695 -122912,575384 -321283,773613 -198315,198145 -472174,320943 -774096,320943 -239389,0 -461033,-77387 -641319,-208406 -181022,-131586 -320404,-317371 -394162,-533204l-2822154 0c-27383,0 -52244,-11140 -70187,-29083 -17944,-17944 -29084,-42776 -29084,-70130l0 -2304201 -80675 -27780c-19985,-6860 -36766,-19758 -48502,-36227 -11763,-16470 -18510,-36540 -18510,-57601l0 -1159783c0,-27354 11140,-52214 29084,-70158 18028,-17944 42889,-29084 70158,-29084l1376409 0 0 -291150c0,-105592 43002,-201404 112367,-270769 69421,-69337 165234,-112367 270769,-112367l1023519 0c105507,0 201376,43030 270712,112424 69422,69308 112424,165120 112424,270712l0 291150 1376409 0c27383,0 52243,11140 70187,29084 17943,17944 29055,42804 29055,70158l0 1159783c0,21090 -6775,41103 -18482,57601 -11764,16412 -28517,29367 -48501,36227l-80619 27751zm-721739 2302954l616232 -616204c19418,-19417 44788,-29083 70130,-29083 25371,0 50769,9666 70102,29027 19418,19531 29169,44901 29169,70186 0,25286 -9751,50685 -29084,70046l-686390 686475c-9411,9411 -20438,16611 -32146,21487 -12217,5074 -25228,7597 -38013,7597 -12784,0 -25767,-2523 -38013,-7597 -11707,-4876 -22706,-12076 -32145,-21487l-288939 -288911c-19361,-19474 -29084,-44873 -29084,-70159 0,-25313 9723,-50712 29084,-70073 19361,-19446 44788,-29197 70158,-29197 25371,0 50798,9751 70159,29112l218780 218781zm-2143474 -4105217c-33392,33393 -54142,79626 -54142,130509l0 291150 1392821 0 0 -291150c0,-50911 -20693,-97088 -54142,-130537 -33364,-33365 -79598,-54114 -130509,-54114l-1023519 0c-50911,0 -97088,20749 -130509,54142zm2814359 620144l-4344152 0 0 989701 1793504 616629 0 -141196c0,-66388 27128,-126739 70810,-170393 43598,-43739 103948,-70810 170393,-70810l274709 0c66332,0 126654,27071 170336,70754 43768,43710 70839,104089 70839,170449l0 141423 1793561 -616799 0 -989758zm-2352164 1739446l0 364484c0,11764 4791,22507 12445,30218 7767,7710 18510,12501 30274,12501l274709 0c11764,0 22451,-4819 30190,-12530 7738,-7625 12529,-18368 12529,-30189l0 -638796c0,-11820 -4762,-22536 -12444,-30189 -7824,-7711 -18511,-12530 -30275,-12530l-274709 0c-11736,0 -22507,4819 -30189,12501 -7739,7654 -12530,18426 -12530,30218l0 274312zm-1844301 -489067l0 2136699 2676026 0c-3090,-20977 -5726,-42237 -7739,-63780 -2806,-30417 -4422,-60691 -4422,-90682 0,-301922 122770,-575781 320943,-774095 198229,-198400 471918,-321283 773613,-321283 54284,0 107832,4110 160245,11877 44164,6576 87620,15903 130197,27638l0 -926374 -1645959 566057 0 287494c0,66360 -27071,126682 -70754,170365 -43711,43767 -104089,70838 -170421,70838l-274709 0c-66445,0 -126795,-27071 -170450,-70753 -43654,-43655 -70753,-104005 -70753,-170450l0 -287749 -1645817 -565802zm3125096 2615562c162229,162229 386283,262747 633325,262747 247355,0 471635,-100518 634006,-262747 162314,-162172 262916,-386282 262916,-633325 0,-247269 -100602,-471521 -263001,-633892 -162371,-162399 -386623,-263030 -633921,-263030 -247099,0 -471152,100574 -633325,262917 -162257,162370 -262775,386651 -262775,634005 0,247014 100518,471096 262775,633325z"></path> </g> </svg> 