<?xml version="1.0" encoding="UTF-8"?> <!-- Creator: CorelDRAW X8 --> <svg xmlns="http://www.w3.org/2000/svg" xmlns:xlink="http://www.w3.org/1999/xlink" xml:space="preserve" width="52px" height="52px" version="1.0" style="shape-rendering:geometricPrecision; text-rendering:geometricPrecision; image-rendering:optimizeQuality; fill-rule:evenodd; clip-rule:evenodd" viewBox="0 0 5200000 5205448"> <defs> <style type="text/css"> <![CDATA[ .fil0 {fill:#1EC8F7} ]]> </style> </defs> <g id="Слой_x0020_1"> <metadata id="CorelCorpID_0Corel-Layer"></metadata> <path class="fil0" d="M2602724 1738791c-475709,0 -863933,388224 -863933,863933 0,475710 388224,858456 863933,858456 475710,0 863933,-382746 863933,-858456 0,-475709 -388223,-863933 -863933,-863933zm896737 71084c27355,0 54682,-10925 76561,-32803l333541 -333542c65607,38280 142168,60131 218700,60131 240608,0 437458,-196822 437458,-437429 0,-240579 -196850,-437430 -437458,-437430 -240579,0 -437429,196851 -437429,437430 0,82037 21879,153121 60159,218728l-333541 333542c-43757,43728 -43757,109364 0,153093 27327,27355 54682,38280 82009,38280zm634279 -956895c120290,0 218729,98439 218729,218728 0,120290 -98439,218701 -218729,218701 -120289,0 -218700,-98411 -218700,-218701 0,-120289 92934,-218728 218700,-218728zm628803 1312315c-202299,0 -371822,142168 -421028,328065l-470232 0c-60159,0 -109365,49205 -109365,109364 0,60159 49206,109365 109365,109365l470232 0c49206,185896 218729,328064 421028,328064 240607,0 437457,-196850 437457,-437429 0,-240579 -196850,-437429 -437457,-437429zm0 656130c-120290,0 -218701,-98411 -218701,-218701 0,-120289 98411,-218729 218701,-218729 120289,0 218728,98440 218728,218729 0,120290 -92962,218701 -218728,218701zm-628803 874886c-82009,0 -153093,21879 -218700,60131l-333570 -333542c-43729,-43729 -109336,-43729 -153093,0 -43729,43757 -43729,109364 0,153122l333541 333541c-38280,65607 -60130,142168 -60130,218700 0,240608 196822,437429 437429,437429 240579,0 437429,-196821 437429,-437429 -10925,-235102 -207775,-431952 -442906,-431952zm0 656129c-120289,0 -218700,-98410 -218700,-218700 0,-120289 98411,-218729 218700,-218729 120290,0 218729,98440 218729,218729 0,120290 -98439,218700 -218729,218700zm-1421651 -5448l0 -470261c0,-60131 -49206,-109336 -109365,-109336 -60130,0 -109364,49205 -109364,109336l0 470261c-185897,49206 -328065,218700 -328065,421027 0,240579 196850,437429 437429,437429 240579,0 437429,-196850 437429,-437429 0,-207775 -142168,-371821 -328064,-421027zm-109365 639728c-120289,0 -218700,-98411 -218700,-218701 0,-120289 98411,-218728 218700,-218728 120290,0 218729,98439 218729,218728 0,120290 -98439,218701 -218729,218701zm-973297 -1558343l-333542 333541c-65607,-38280 -142168,-60159 -218700,-60159 -240607,0 -437429,196851 -437429,437458 0,240579 196822,437429 437429,437429 240579,0 437429,-196850 437429,-437429 0,-82038 -21878,-153122 -60159,-218729l333542 -333541c43757,-43757 43757,-109365 0,-153093 -49206,-49234 -120290,-49234 -158570,-5477zm-557719 924063c-120289,0 -218700,-98410 -218700,-218700 0,-120289 98411,-218729 218700,-218729 120290,0 218729,98440 218729,218729 5448,120290 -92963,218700 -218729,218700zm-213252 -1640351l470261 0c60131,0 109336,-49234 109336,-109365 0,-60159 -49205,-109364 -109336,-109364l-470261 0c-49205,-185897 -218700,-328065 -421027,-328065 -240579,0 -437429,196850 -437429,437429 0,240579 196850,437429 437429,437429 207775,0 371822,-142168 421027,-328064zm-415550 109336c-120290,0 -218729,-98411 -218729,-218701 0,-120289 98439,-218729 218729,-218729 120289,0 218700,98440 218700,218729 0,120290 -98411,218701 -218700,218701zm628802 -1312288c82009,0 153093,-21878 218729,-60159l333541 333570c21851,21850 49206,32804 76533,32804 27355,0 54682,-10954 76561,-32804 43757,-43757 43757,-109364 0,-153121l-333542 -333542c38280,-65607 60159,-142168 60159,-218700 0,-240607 -196850,-437457 -437457,-437457 -240579,0 -437430,196850 -437430,437457 0,240579 207776,431952 442906,431952zm0 -656157c120290,0 218729,98439 218729,218728 0,120290 -98439,218701 -218729,218701 -120289,0 -218700,-98411 -218700,-218701 0,-120289 98411,-218728 218700,-218728zm1421652 5476l0 470233c0,60159 49234,109364 109364,109364 60159,0 109365,-49205 109365,-109364l0 -470233c185896,-49205 328064,-218700 328064,-421027 0,-240579 -196850,-437429 -437429,-437429 -240579,0 -437429,196850 -437429,437429 0,207775 142168,371822 328065,421027zm109364 -639756c120290,0 218729,98440 218729,218729 0,120290 -98439,218729 -218729,218729 -120289,0 -218700,-98439 -218700,-218729 0,-120289 98411,-218729 218700,-218729zm0 3029228c-355420,0 -645204,-289784 -645204,-645204 0,-355420 289784,-645204 645204,-645204 355420,0 645204,289784 645204,645204 0,355420 -289784,645204 -645204,645204z"></path> </g> </svg> 