<?xml version="1.0" encoding="UTF-8"?> <!-- Creator: CorelDRAW X8 --> <svg xmlns="http://www.w3.org/2000/svg" xmlns:xlink="http://www.w3.org/1999/xlink" xml:space="preserve" width="52px" height="52px" version="1.0" style="shape-rendering:geometricPrecision; text-rendering:geometricPrecision; image-rendering:optimizeQuality; fill-rule:evenodd; clip-rule:evenodd" viewBox="0 0 5200000 5200000"> <defs> <style type="text/css"> <![CDATA[ .fil0 {fill:#1EC8F7} ]]> </style> </defs> <g id="Слой_x0020_1"> <metadata id="CorelCorpID_0Corel-Layer"></metadata> <path class="fil0" d="M2459937 2090063l401594 401594 1309298 0c567453,0 1029171,461718 1029171,1029172 0,567453 -461718,1029171 -1029171,1029171l-279503 0c-52868,366925 -368428,650000 -749669,650000 -381212,0 -696801,-283075 -749668,-650000l-883978 0c-52867,366925 -368456,650000 -749668,650000 -418064,0 -758343,-340166 -758343,-758343 0,-418148 340279,-758314 758343,-758314 381212,0 696801,283074 749668,650000l883978 0c52867,-366926 368456,-650000 749668,-650000 381241,0 696801,283074 749669,650000l279503 0c448083,0 812514,-364431 812514,-812514 0,-448055 -364431,-812486 -812514,-812486l-1309298 0 -401594 401594 -153188 -153188 248406 -248406 -1525984 0c-567453,0 -1029171,-461718 -1029171,-1029172 0,-567453 461718,-1029171 1029171,-1029171l279503 0c52868,-366925 368428,-650000 749669,-650000 381212,0 696801,283075 749668,650000l883978 0c52867,-366925 368456,-650000 749668,-650000 418064,0 758343,340166 758343,758343 0,418148 -340279,758314 -758343,758314 -381212,0 -696801,-283074 -749668,-650000l-883978 0c-52867,366926 -368456,650000 -749668,650000 -381241,0 -696801,-283074 -749669,-650000l-279503 0c-448055,0 -812514,364431 -812514,812514 0,448055 364459,812486 812514,812486l1525984 0 -248406 -248406 153188 -153188zm-1701594 1809937c-298694,0 -541686,242992 -541686,541657 0,298694 242992,541686 541686,541686 298665,0 541657,-242992 541657,-541686 0,-298665 -242992,-541657 -541657,-541657zm2383314 0c-298665,0 -541657,242992 -541657,541657 0,298694 242992,541686 541657,541686 298694,0 541686,-242992 541686,-541686 0,-298665 -242992,-541657 -541686,-541657zm1300000 -2600000c298694,0 541686,-242992 541686,-541657 0,-298694 -242992,-541686 -541686,-541686 -298665,0 -541657,242992 -541657,541686 0,298665 242992,541657 541657,541657zm-2383314 0c298665,0 541657,-242992 541657,-541657 0,-298694 -242992,-541686 -541657,-541686 -298694,0 -541686,242992 -541686,541686 0,298665 242992,541657 541686,541657z"></path> </g> </svg> 