<?xml version="1.0" encoding="UTF-8"?> <!-- Creator: CorelDRAW X8 --> <svg xmlns="http://www.w3.org/2000/svg" xmlns:xlink="http://www.w3.org/1999/xlink" xml:space="preserve" width="55px" height="52px" version="1.0" style="shape-rendering:geometricPrecision; text-rendering:geometricPrecision; image-rendering:optimizeQuality; fill-rule:evenodd; clip-rule:evenodd" viewBox="0 0 5499971 5241521"> <defs> <style type="text/css"> <![CDATA[ .fil0 {fill:#1EC8F7} ]]> </style> </defs> <g id="Слой_x0020_1"> <metadata id="CorelCorpID_0Corel-Layer"></metadata> <path class="fil0" d="M3095543 1664110l562818 78035c11601,1543 22802,5143 33003,10286 10258,5201 19744,12144 27831,20516 19973,20716 29774,47604 29317,74264 -458,26602 -11058,53033 -31603,73034l-407834 403491 96465 561247c3658,19830 1515,39946 -5686,57947 -7229,18088 -19630,34232 -36089,46033l-1771 1000c-9315,5000 -19345,8601 -29574,10658 -10372,2114 -21002,2743 -31374,1829 -8029,-86 -16059,-1172 -23716,-3172 -8230,-2115 -16173,-5315 -23460,-9458l-503584 -262822 -504185 269194c-17459,9315 -36803,13230 -55719,12001 -19002,-1257 -37660,-7772 -53747,-19230 -16516,-11801 -28917,-27945 -36146,-46033 -7201,-18173 -9429,-38346 -5601,-58262l96380 -567104 -408177 -397633c-7001,-7486 -12887,-15916 -17344,-24916 -4486,-9001 -7687,-18802 -9430,-28860 -4857,-28374 2286,-56033 17630,-77778 15430,-21802 39232,-37774 67635,-42603l563189 -81607 251593 -510185c5143,-10573 11972,-20145 20058,-28231 8173,-8201 17745,-15030 28317,-20173 25831,-12516 54405,-13344 79607,-4629 25173,8743 47118,27145 59662,53033l251535 510128zm-1448063 -632424c282195,-282195 672113,-456810 1102691,-456810 430436,600 820126,175215 1102206,457324 282052,282052 456695,671742 457181,1102177 86,430608 -174529,820469 -456695,1102663 -282195,282224 -672113,456781 -1102692,456781 -430578,0 -820496,-174557 -1102691,-456752 -282195,-282195 -456781,-672084 -456781,-1102692 0,-430607 174614,-820525 456781,-1102691zm148269 2056256c244221,244221 581677,395319 954422,395319 372317,-343 709545,-151470 953708,-395490 244163,-243992 395462,-581077 396119,-953394l-114 -857c0,-372745 -151070,-710202 -395290,-954422 -244221,-244192 -581706,-395290 -954423,-395290 -372745,0 -710201,151098 -954422,395290 -244220,244220 -395290,581677 -395290,954422 0,372745 151070,710231 395290,954422zm1302108 -835669c5172,-15916 14202,-30631 26603,-42632l295196 -289424 -408377 -57834c-16859,-2400 -32660,-8972 -46090,-18630 -13401,-9658 -24573,-22544 -32202,-37689l-182958 -370888 -186244 370831c-7630,15202 -18802,28117 -32175,37746 -13458,9687 -29231,16230 -46032,18630l-404719 57777 298539 289481c12401,12001 21487,26773 26659,42660 5172,15888 6486,33146 3572,50062l-72749 407605 364373 -191673c15401,-8144 32260,-12258 48918,-12258 16802,0 33689,4086 49005,12258l364573 191016 -69492 -406948c-2971,-17002 -1571,-34203 3600,-50090zm1535042 868101l836641 834869c15059,15116 24745,34060 28546,54062 3828,20001 1800,41203 -6572,60690 -8115,19488 -21745,35661 -38546,46890 -16916,11258 -37175,17602 -58348,17516l-1013256 -11373 11401 1013170c143,21002 -6000,41175 -17087,58091 -11030,16887 -27059,30574 -46490,38832 -6343,2714 -13058,4800 -19916,6229 -7000,1400 -14001,2171 -20773,2171 -13972,-285 -27488,-3171 -39774,-8429 -12344,-5286 -23717,-13058 -33346,-22802l-645597 -645511c-20258,-20458 -30345,-47232 -30288,-73891 86,-26746 10401,-53491 30803,-73721 20430,-20259 47232,-30345 73920,-30260 26602,86 53319,10373 73549,30717l464267 463410 -10258 -863157c-57,-14201 2715,-28088 8001,-40775 5315,-12715 13201,-24488 23230,-34289 9401,-10400 20917,-18373 33546,-23544 12887,-5287 27117,-7658 41432,-6687l863043 12773 -555474 -556304c-28603,56891 -68349,106581 -116124,146441 -53262,44461 -116810,77007 -186216,93865l-384060 91808 -199417 340285c-59433,97094 -149727,165157 -251307,197902 -101551,32746 -214503,30317 -319197,-13629l-364717 -150470 -364030 154870c-29088,12372 -59348,21602 -90093,27602 -30717,5972 -62262,8772 -93979,8287 -79435,571 -156270,-19345 -223819,-56176 -67663,-36918 -126125,-90894 -168614,-158156l-203217 -342400 -385603 -87465c-74578,-17287 -142441,-52661 -198388,-101494 -50204,-43803 -90922,-98551 -118439,-160927l-559275 562532 863472 -9344c14173,-828 28260,1600 41089,6858 12916,5200 24660,13373 34260,23916 9744,9687 17459,21259 22688,33746 5286,12687 8058,26574 8001,40661l-10258 863271 464267 -463410c20230,-20344 46918,-30631 73549,-30717 26716,-85 53518,10001 73949,30260 20344,20202 30631,46975 30745,73663 57,26717 -10029,53548 -30260,73892l-645653 644768c-9630,9715 -20973,17487 -33289,22745 -12315,5257 -25830,8172 -39603,8343 -7201,-28 -14201,-742 -20973,-2143 -6858,-1400 -13544,-3486 -19888,-6172 -19401,-8286 -35460,-21973 -46518,-38831 -11029,-16802 -17201,-37003 -17058,-58119l10572 -1013170 -1013256 11343c-14029,86 -27802,-2628 -40403,-7829 -12772,-5257 -24488,-13029 -34288,-22916 -20202,-20459 -30260,-47261 -30174,-73892 85,-26659 10372,-53347 30716,-73549l847014 -847870 29259 -364059 -262393 -297396c-74806,-86493 -112181,-193731 -112181,-300911 0,-107180 37375,-214446 112038,-300825l258993 -300054 -35917 -393661c-10287,-113438 21773,-222161 84007,-309140 62262,-87036 154813,-152441 265565,-179329l384117 -91836 202960 -339514c58605,-97751 148612,-166728 250192,-200331 101552,-33546 214847,-31831 320113,11715l364859 151356 363944 -156613c105123,-44747 218733,-47547 320855,-14773 102152,32774 192902,101180 252336,198731l203874 341285 384803 87465c110866,24916 204417,88607 268108,174271 63720,85693 97722,193531 89750,306797l-31459 393919 262364 297339c74778,86521 112152,193759 112152,300939 0,107152 -37345,214361 -111980,300768l-257222 300082c10716,117610 36003,284338 36003,396719zm-824525 387946l426664 -102151c60690,-15116 111323,-51490 145069,-99580 33746,-48090 50718,-108037 44289,-170271l-40003 -437694c-1143,-14058 600,-27859 4829,-40717 4229,-12859 11058,-25031 20116,-35546l285424 -334342c40689,-47176 61062,-105752 61062,-164328 0,-58519 -20316,-117124 -61005,-164242l-288024 -329828c-9287,-10715 -16173,-23059 -20430,-36146 -4258,-13087 -5887,-27088 -4715,-41003l33803 -434722c4914,-62234 -13344,-121496 -47976,-168643 -34603,-47146 -85721,-82349 -146440,-96265l-427665 -97779c-13658,-3143 -26459,-8915 -37546,-16830 -11200,-8058 -20801,-18259 -28116,-30088l-229505 -374460c-32603,-53205 -82264,-90436 -138069,-108181 -55861,-17772 -117981,-16058 -175386,8515l-403805 169014c-12829,5344 -26516,8058 -40117,8058 -13573,0 -27260,-2714 -40089,-8058l-401091 -169014c-57947,-24430 -120610,-25545 -176700,-6972 -56033,18488 -105637,56777 -137583,110924l-225047 377117c-7229,12087 -16830,22488 -27974,30660 -11230,8115 -24116,14144 -37775,17287l-426721 102180c-60519,14515 -111266,50175 -145469,97665 -34117,47375 -51804,106809 -46375,168928l39946 437437c1229,14001 -400,28002 -4629,41117 -4258,13087 -11144,25403 -20287,36032l-285481 333428c-40718,47175 -61063,105751 -61063,164328 0,58576 20345,117152 61006,164270l288138 333457c9086,10572 15887,22716 20144,35574 4229,12830 5972,26631 4915,40489l-33774 437494c-4486,61805 13887,120695 48461,167471 34603,46832 85550,81749 145926,95636l427693 98694c13601,3086 26431,8887 37517,16830 11173,7972 20774,18173 28117,30088l229505 374432c32603,53204 82264,90436 138068,108208 55862,17745 117982,16059 175386,-8543l403748 -169814c12916,-5429 26603,-8144 40175,-8144 13601,0 27288,2715 40118,8087l405462 168042c57776,23974 120039,24888 175700,6401 55662,-18516 104980,-56519 136897,-110295l224991 -376203c7229,-12087 16829,-22487 27945,-30631 11258,-8172 24059,-14201 37746,-17373z"></path> </g> </svg> 