<?xml version="1.0" encoding="UTF-8"?> <!-- Creator: CorelDRAW X8 --> <svg xmlns="http://www.w3.org/2000/svg" xmlns:xlink="http://www.w3.org/1999/xlink" xml:space="preserve" width="52px" height="52px" version="1.0" style="shape-rendering:geometricPrecision; text-rendering:geometricPrecision; image-rendering:optimizeQuality; fill-rule:evenodd; clip-rule:evenodd" viewBox="0 0 5200000 5200000"> <defs> <style type="text/css"> <![CDATA[ .fil0 {fill:#1EC8F7} ]]> </style> </defs> <g id="Слой_x0020_1"> <metadata id="CorelCorpID_0Corel-Layer"></metadata> <path class="fil0" d="M1480000 1479348c286555,-286498 682330,-464429 1120000,-464429 438379,0 834692,177081 1121332,463749 286640,286640 463749,682953 463749,1121332 0,438379 -177109,834692 -463749,1121332 -286640,286640 -682953,463749 -1121332,463749 -437670,0 -833445,-177931 -1120000,-464429 -287433,-287491 -465081,-684399 -465081,-1120652 0,-436253 177648,-833161 465081,-1120652zm3249193 539406l366548 0c27865,0 53972,12161 73021,31153 19077,19134 31238,45185 31238,73106l0 953974c0,27950 -12161,54113 -31124,73106 -19134,18992 -45213,31124 -73135,31124l-366548 0c-25059,92268 -55588,183374 -92070,271928 -34356,83339 -74069,164297 -119481,241626l260222 260221c20721,20722 31124,46914 31124,73106 0,26164 -10431,52299 -31124,73049l-676632 676717c-20835,20693 -46914,31124 -73134,31124 -26192,0 -52384,-10403 -73106,-31124l-260391 -260392c-82176,46914 -165742,87648 -251264,122798 -85408,35121 -172630,64573 -262091,88923l0 366520c0,27921 -12161,54000 -31153,73049 -19134,19077 -45185,31238 -73106,31238l-953974 0c-27921,0 -53972,-12161 -73021,-31153 -19077,-19134 -31238,-45213 -31238,-73134l0 -360993c-92267,-25087 -183373,-55559 -271928,-92069 -83310,-34356 -164268,-74042 -241597,-119424l-260221 260192c-20835,20693 -46970,31125 -73106,31125 -26220,0 -52299,-10432 -73049,-31125l-676717 -676631c-20749,-20778 -31124,-46942 -31124,-73134 0,-26136 10403,-52299 31181,-73049l260335 -260476c-46914,-82120 -87648,-165742 -122798,-251236 -35121,-85436 -64573,-172658 -88923,-262120l-366548 0c-27922,0 -53972,-12132 -73021,-31153 -19077,-19105 -31238,-45212 -31238,-73134l0 -953889c0,-27921 12161,-54028 31153,-73049 19134,-19105 45184,-31238 73106,-31238l372104 0c25087,-92296 55560,-183373 92042,-271899 34384,-83311 74069,-164297 119480,-241655 -53518,-53518 -230372,-215150 -262744,-263395 -6945,-10404 -13975,-22904 -18907,-36397 -4195,-11566 -6916,-23925 -6916,-36284 0,-14003 1984,-28261 6888,-41839 4535,-12416 11508,-24095 21486,-34073l671076 -676547c20750,-20834 46914,-31209 73134,-31209 26192,0 52356,10375 73106,31124l260391 260392c82120,-46914 165742,-87648 251235,-122798 85437,-35121 172631,-64573 262120,-88923l0 -366548c0,-27922 12161,-53972 31153,-73021 19134,-19077 45185,-31238 73106,-31238l953974 0c27865,0 53972,12161 73021,31153 19077,19134 31238,45184 31238,73106l0 372104c92267,25087 183373,55560 271928,92042 83339,34384 164268,74069 241597,119480l260221 -260221c20807,-20721 46999,-31124 73106,-31124 26220,0 52384,10374 73134,31124 124866,122854 611123,565740 679296,668836 6123,9270 12416,20240 17206,32202 5074,12756 8504,26504 8504,40422 0,14003 -1955,28233 -6888,41811 -4507,12416 -11480,24095 -21486,34073l-260392 260391c46914,82120 87648,165742 122798,251235 35121,85437 64573,172631 88923,262120zm-82716 953918l356061 0 0 -739816 -344949 0c-24066,0 -46573,-8589 -64687,-23103 -18141,-14513 -32003,-35008 -38778,-58762l-226 -1077c-24860,-107774 -58026,-212627 -99383,-313739 -40848,-99894 -89972,-196640 -147232,-289390 -13777,-20693 -19049,-44873 -16583,-68117 2466,-23527 12926,-46346 30359,-63751l245708 -245793 -524779 -524807 -245765 245764c-17376,17376 -40195,27836 -63779,30302 -23244,2466 -47452,-2806 -68117,-16582 -92835,-57289 -189582,-106385 -289475,-147261 -101112,-41357 -205966,-74494 -313711,-99354l-1049 -227c-23782,-6775 -44277,-20608 -58762,-38750 -14542,-18170 -23102,-40620 -23102,-64686l0 -344978 -745372 0 0 339393c0,24038 -8561,46517 -23074,64687 -14429,18170 -34952,32003 -58791,38806l-1077 227c-107774,24832 -212599,58026 -313739,99383 -99894,40848 -196640,89944 -289390,147232 -20693,13776 -44873,19021 -68117,16583 -23527,-2466 -46290,-12926 -63694,-30331l-245793 -245793 -524864 524808 245764 245821c17405,17405 27865,40224 30302,63808 2438,23046 -2749,46998 -16299,67578 -57402,92948 -106583,189865 -147544,289928 -41357,101112 -74494,205966 -99354,313683l-227 1077c-6775,23811 -20608,44334 -38665,58791 -18141,14570 -40677,23102 -64771,23102l-344978 0 0 745344 339393 0c24067,0 46545,8532 64715,23074 18142,14485 31975,34979 38778,58819l227 1077c24832,107745 58026,212627 99383,313768 40848,99836 89972,196555 147260,289361 13777,20665 18993,44816 16555,68060 -2466,23499 -12898,46290 -30331,63723l-245793 245821 524893 524893 245821 -245793c17433,-17433 40224,-27865 63723,-30331 23244,-2438 47395,2778 68060,16555 92806,57288 189525,106412 289361,147260 101141,41357 206023,74551 313768,99383l1077 227c23840,6803 44334,20636 58819,38693 14514,18226 23074,40733 23074,64800l0 344920 739816 0 0 -344920c0,-24038 8589,-46545 23074,-64687 14429,-18170 34952,-32003 58791,-38806l1077 -227c107774,-24832 212627,-58026 313739,-99383 99894,-40848 196640,-89972 289390,-147260 20693,-13777 44873,-18993 68117,-16555 23527,2495 46261,12926 63694,30331l245793 245793 524864 -524836 -245764 -245793c-17376,-17376 -27836,-40167 -30302,-63751 -2438,-23046 2749,-47055 16299,-67635 57402,-92948 106583,-189865 147544,-289928 41357,-101112 74494,-205966 99354,-313683l227 -1077c6775,-23811 20608,-44334 38665,-58791 18141,-14570 40677,-23102 64771,-23102zm-1983633 -476959l464005 0c27978,0 52667,10658 70384,28375 17717,17717 28375,42378 28375,70356 0,27978 -12104,54114 -31153,73162 -19106,18993 -45213,31153 -73134,31153l-526877 0c-17802,0 -35603,-5386 -51506,-15165 -15108,-9298 -28630,-22819 -38636,-39543 -143518,-259400 -316772,-603441 -439428,-873272 -10488,-24463 -10488,-52271 -1786,-77244 8618,-24520 25682,-46574 49465,-60180l2240 -1077c24463,-10488 52299,-10488 77244,-1758 24491,8589 46573,25682 60179,49465l410628 815728zm10290 -843026c-18992,18964 -45156,31125 -73134,31125 -28432,0 -55106,-11112 -74410,-30388 -18311,-18226 -29877,-43710 -29877,-73899l0 -138671c0,-27950 12132,-54114 31153,-73134 18992,-18992 45156,-31153 73134,-31153 27978,0 54142,12161 73134,31153 19021,19020 31153,45184 31153,73134l0 138671c0,27978 -12132,54114 -31153,73162zm-146240 1894654c19078,-19021 45156,-31153 73106,-31153 28432,0 55106,11112 74410,30388 18311,18226 29877,43710 29877,73899l0 138671c0,27950 -12132,54085 -31153,73106 -18992,18992 -45156,31153 -73134,31153 -27978,0 -54142,-12161 -73134,-31153 -19021,-19021 -31153,-45156 -31153,-73106l0 -138671c0,-27950 12132,-54029 31181,-73134zm1020447 -874235c-19021,-19078 -31153,-45213 -31153,-73106 0,-28432 11112,-55106 30388,-74410 18226,-18311 43710,-29877 73899,-29877l138671 0c27950,0 54085,12132 73106,31153 18992,18992 31153,45156 31153,73134 0,27978 -12161,54114 -31153,73106 -19021,19020 -45156,31153 -73106,31153l-138671 -57c-27950,85 -54029,-12047 -73134,-31096zm-2106487 -177393l138671 0c30189,0 55673,11566 73899,29792 19276,19389 30388,46063 30388,74495 0,27978 -12161,54142 -31125,73134 -19133,18992 -45269,31125 -73162,31125l-138671 -57c-27950,85 -54114,-12047 -73134,-31068 -18992,-18992 -31153,-45156 -31153,-73134 0,-27978 12161,-54142 31153,-73134 19020,-19021 45184,-31153 73134,-31153zm186180 1077253c249194,249223 593321,403541 972966,403541 379617,0 723772,-154318 972966,-403541 249223,-249194 403541,-593349 403541,-972966 0,-379645 -154318,-723772 -403541,-972966 -249194,-249223 -593349,-403541 -972966,-403541 -379645,0 -723772,154318 -972966,403541 -249223,249194 -403541,593321 -403541,972966 0,379617 154318,723772 403541,972966z"></path> </g> </svg> 