<?xml version="1.0" encoding="UTF-8"?> <!-- Creator: CorelDRAW X8 --> <svg xmlns="http://www.w3.org/2000/svg" xmlns:xlink="http://www.w3.org/1999/xlink" xml:space="preserve" width="45px" height="52px" version="1.0" style="shape-rendering:geometricPrecision; text-rendering:geometricPrecision; image-rendering:optimizeQuality; fill-rule:evenodd; clip-rule:evenodd" viewBox="0 0 4499972 5145750"> <defs> <style type="text/css"> <![CDATA[ .fil0 {fill:#1EC8F7} ]]> </style> </defs> <g id="Слой_x0020_1"> <metadata id="CorelCorpID_0Corel-Layer"></metadata> <path class="fil0" d="M2225455 5142496c-707184,-184916 -1167709,-531748 -1466937,-917880 -492532,-635680 -546307,-1377086 -545213,-1678698 561,-157455 -4208,-306690 -14390,-449389 -10127,-141689 -25696,-275973 -46678,-404646 -62191,-379568 -145617,-712093 -149151,-726231l-113 -421c-16326,-66174 37309,-127747 105054,-121155l1206 168c7602,954 506558,50213 1116571,-189349 307503,-120790 642496,-315133 955217,-626282 19131,-19075 44041,-28613 68951,-28613 24826,0 49792,9510 68979,28613 312580,311009 647434,505295 954909,626030 610208,239646 1110371,190219 1117916,189433l337 0c67745,-6536 121688,55402 104689,121520 -561,2132 -38347,151395 -82219,365149 -22021,107158 -45669,230978 -66960,361138 -21067,128786 -36607,263153 -46734,404842 -10155,142671 -14839,291738 -14250,449024 1122,301781 -52653,1043187 -545242,1678895 -299199,386132 -759696,732936 -1466740,917852 -18514,3703 -30043,4881 -49202,0zm123399 -4143490l0 3349823c172126,-64406 320070,-141969 447060,-228818 173556,-118742 307980,-254709 411547,-398138 122474,-169600 203263,-351207 255495,-527961 70073,-237205 89064,-465378 88419,-646115 -308,-89906 870,-176137 3535,-258721 2945,-91505 7125,-174538 12511,-249015 5863,-81659 13324,-160849 22245,-237654 8612,-74337 19355,-150582 32119,-228790l8584 -51447c-95572,-18626 -200766,-43312 -313198,-75936 -125391,-36411 -259590,-82837 -398895,-141913 -125447,-53186 -252241,-114956 -376875,-186432 -63930,-36692 -128224,-76245 -192547,-118883zm-197933 3349739l0 -3349711c-64266,42610 -128505,82135 -192406,118799 -124634,71504 -251484,133273 -376959,186488 -139333,59076 -273533,105530 -398952,141941 -112375,32624 -217541,57282 -313085,75908l8556 51335c12763,78264 23507,154565 32119,228846 8892,76833 16326,156051 22245,237738 5358,74505 9566,157426 12511,249099 2665,82584 3815,168872 3535,258805 -646,180681 18345,408798 88447,646003 52204,176698 133021,358277 255523,527877 103567,143401 238019,279396 411631,398167 126906,86820 274794,164326 446835,228705zm69793 232829c-525353,-165336 -867527,-438869 -1088294,-744520 -317434,-439458 -382345,-943940 -381055,-1289061 589,-172518 -4684,-336508 -16045,-493990 -11305,-156417 -28641,-305315 -52064,-448800l-25135 -146261c-9650,-53832 26425,-104970 80425,-113778 208508,-34223 476121,-99359 766485,-222506 220430,-93497 454465,-220795 686425,-393846 35093,-25752 81827,-25892 116892,0 232043,173079 466051,300377 686453,393846 290391,123175 558061,188283 766541,222506 53944,8808 89990,60031 80396,113778l-25134 146373c-23423,143457 -40787,292327 -52064,448660 -11361,157426 -16663,321360 -16045,493822 1290,345176 -63622,849743 -380999,1289257 -220767,305679 -562914,579184 -1088098,744464 -19019,6200 -39637,5975 -58684,56zm-1997731 -3537517c13100,56861 29651,131057 47744,217877 24293,116668 50914,254233 74477,398503 22077,134732 38319,274570 48838,421421 10436,145869 15289,300069 14728,464480 -1235,349665 63368,997856 490231,1551681 274010,355499 698011,672792 1350999,848648 652932,-175856 1077018,-493177 1350971,-848648 426806,-553769 491438,-1201820 490231,-1551540 -673,-164355 4180,-318556 14615,-464425 10492,-146878 26762,-286800 48782,-421617 18879,-115377 40086,-228173 60536,-329804 23619,-117340 45416,-215633 61742,-286576 -202870,785 -615343,-25724 -1084424,-211763 -304080,-120566 -632117,-308120 -942453,-598455 -310336,290363 -638457,477945 -942566,598540 -469193,186067 -881777,212519 -1084451,211678z"></path> </g> </svg> 